# xmcd
#
# Track frame offsets:
# 150
# 9416
# 28441
# 39339
# 56573
# 71001
# 83436
# 97696
# 110094
# 122906
#
# Disc length: 1827 seconds
#
#
# Revision: 0
# Processed by: cddbd v1.5.2PL0 Copyright (c) Steve Scherf et al.
# Submitted via: FreeRIP 2.96 
#
DISCID=7a07210a
DTITLE=Witness - He's Taking Care Of Me
DYEAR=1900
DGENRE=Gospel
TTITLE0=Headed For A City
TTITLE1=When We March Through
TTITLE2=Hallelujah I'm Ready
TTITLE3=He's Taking Care Of Me
TTITLE4=Inside The Gate
TTITLE5=His Tomb Is Empty Now
TTITLE6=Because Of You
TTITLE7=I Believe
TTITLE8=Living On The Other Side
TTITLE9=I'm A Poor Rich Man
EXTD=
EXTT0=
EXTT1=
EXTT2=
EXTT3=
EXTT4=
EXTT5=
EXTT6=
EXTT7=
EXTT8=
EXTT9=
PLAYORDER=
